<?xml version="1.0" encoding="UTF-8"?><svg id="Layer_1" xmlns="http://www.w3.org/2000/svg" viewBox="0 0 141.73 148.1"><defs><style>.cls-1{fill:#fff;}</style></defs><path class="cls-1" d="M16.01,74.76c0-35.53,21.78-60.39,59.78-60.39,30.61,0,49.71,16.23,49.71,44.57,0,18.49-10.45,32.29-19.11,37-9.01,4.9-16.11,5.95-19.77,5.95-4.69,0-8.13-1.78-8.13-8.69v-20.4h17.8v-16.27h-17.8v-23.78l-19.45,8.46v15.31h-13.14v16.27h13.14v26.07c0,12.08,6.37,18.02,14.45,20.14,1.5.61,3.95.96,7.62.96,34.72,0,60.62-22.6,60.62-61.01C141.73,24.64,117.7,0,75.79,0,27.72,0,0,32.87,0,74.76c0,50.33,35.73,73.33,82.98,73.33,16.63,0,32.04-2.88,41.9-6.98v-14.79c-12.94,4.93-26.29,7.19-41.9,7.19-32.26,0-66.97-13.76-66.97-58.75"/></svg>